<svg id="Layer_1" data-name="Layer 1" xmlns="http://www.w3.org/2000/svg" xmlns:xlink="http://www.w3.org/1999/xlink" viewBox="0 0 914 948"><defs><style>.cls-1{fill:none;}.cls-2{clip-path:url(#clip-path);}.cls-3{fill:#fce3c3;}.cls-4{fill:#603813;}.cls-5{fill:#ffcfca;}.cls-6{fill:#fbb03b;}.cls-7{fill:#f9bfbb;}.cls-8{fill:#1f3c49;}.cls-9{fill:#fff;}.cls-10{fill:#d55454;}.cls-11{fill:#f37c7c;}.cls-12{fill:#f15a24;}.cls-13{fill:#f7a037;}</style><clipPath id="clip-path"><circle class="cls-1" cx="458.63" cy="475.95" r="361.71"/></clipPath></defs><g class="cls-2"><circle class="cls-3" cx="458.63" cy="475.95" r="361.71"/><path class="cls-4" d="M715.38,661.3l-.06-.17C704.12,631.55,684.19,604.28,662,582c-24.29-24.44-44.6-45.65-52.54-80.59-5.89-26-5.72-52.87-6.15-79.5-.7-43-4.72-89.36-29.16-126.09-21.44-32.23-56.16-54.08-95.29-54.67-50.27-.75-98.05,29.57-123.43,72.31-26.81,45.13-29.56,98.27-49,146.21-10.84,26.76-29,50.66-44.24,75.16-22.38,35.91-49.3,71.3-59.65,112.86-23.73,95.86,28.2,198.82,119.86,235.25A190.44,190.44,0,0,0,349,891.3q6.19,1.46,12.49,2.52c63.32,10.67,127.7,2.47,189.21-14.5,36.25-10,72.09-23.42,102.73-45.29C707.67,795.32,740.08,726.75,715.38,661.3Z"/><path class="cls-5" d="M1145,932.65c-10.3-2.3-20.67-4.27-31-6.19-11.93-2.22-23.91-4.17-35.78-6.7-.81-.17-2.77-.8-2.71-1.89a1.06,1.06,0,0,1,.81-.89c1.18-.35,2.73.2,3.86.51a239.34,239.34,0,0,0,25,5q11.1,1.76,22.1,4c5.18,1.05,10.53,2.8,15.77,3.22,3.68.29,7.66-.7,9-4.61,3.83-11.46-19.16-14.46-25.93-15.91-20.69-4.43-41.2-9.77-61.93-13.93-1.84-.37-3.77-.51-5.43-1.46a1.45,1.45,0,0,1-.77-.81,1.5,1.5,0,0,1,.63-1.35c2.81-2.67,6.86-3.82,10.33-5.33,4.84-2.13,10.23-4.51,14.22-8.08,2.94-2.68,5-7.19,2.69-10.87-2-3.08-5.79-4.74-9.34-4.91-4.53-.21-8.9,1.48-13.14,3.09q-14.19,5.42-28.64,10.13c-8.89,2.9-18.43,3.11-27.24,6.26a97.33,97.33,0,0,0-16.81,7.93c-2.26-.81-137.89-66.59-199.22-78.77L685.26,666.25c-4.61,5.19-9.33,10.28-14,15.38-12.92,14-25.46,28.31-38.45,42.22-4.08,4.38-8.22,8.7-12.36,13q-2.4,3.21-4.77,6.44C653.42,790.06,716.89,868.51,736,891.77a12.31,12.31,0,0,0,5.59,6.68c65.57,34.28,230.12,38.49,232.62,39.65,1.8.85,3.14,3.4,4.46,4.9,1.63,1.86,3.37,3.65,5.17,5.35a98.11,98.11,0,0,0,36.87,21.89c5.46,1.79,11.14,2.35,16.81,3,12,1.49,23.94,3.36,36,4.73s24,1.22,36,.74c4.39-.17,10.19-.35,12.7-4.66a5.26,5.26,0,0,0-2-7.6c-2.89-1.5-6.59-1.23-9.78-1.48q-5.4-.42-10.82-.81-9.23-.66-18.46-1.23c-2.93-.18-6.3.24-9.07-.9-1.65-.68.14-2.21,1.1-2.44,2-.48,4.29.2,6.25.42,2.43.27,4.86.53,7.3.76q7.31.72,14.62,1.25c9.52.7,19,1.21,28.58,1.68a31,31,0,0,0,7.71-.28c4.67-1,10.51-6.33,6.68-11.35-1.94-2.55-5.6-2.86-8.81-3-10.64-.2-21.26-.95-31.84-2.07q-8-.86-15.86-2-3.94-.55-7.88-1.16c-1-.16-5.16-.14-5.48-1.4-.45-1.77,3-1.51,3.86-1.4l22.09,2.69,36.82,4.49c5.89.71,17.8,3.73,20.39-4C1160.35,936.32,1150.75,933.94,1145,932.65Z"/><path class="cls-6" d="M747.4,736.34c-27.91,32.22-51.2,55.24-79.69,86.93-3.37-3.68-6.73-7.49-10-11.2-11.78-13.59-21.53-26-21.91-26.46h0s-8.69,199.93-10.14,207.17c-2.58,12.87,24.63,113,18.83,118.8-74,74-291.2,53.61-331.77-26.07-4.69-9.22,67.94-113,67.94-113S350.84,876.87,336,821.37c-6-22.46-10.22-38.35-10.23-38.67-1.59,4.77-4.35,17.39-8.69,31.87-14.49-4.34-110.2-24.34-120.25-29,33.81-107.16,76.93-161.21,96.68-177,14-11.18,106.35-46,209.3-38.23,57.92,4.35,126.87,30.42,138.59,41C670.77,637.92,716.88,696.6,747.4,736.34Z"/><path class="cls-5" d="M528.17,600.59c-6.1,19.54-26.65,24.12-44.81,23.92-20-.22-46.52-4.84-53.66-26.77-4.91-15.13-1.38-32.5-1.3-48.09.05-10.36-.28-20.73-1.12-31.06-.51-6.35-1.2-12.68-2.11-19-.74-5.08-1.58-10.17-2.53-15.23q-.94-5.1-2.05-10.17c-.51-2.36-3.35-8.72-.61-10.36,2.53-1.5,7.74,3,9.85,4.25A740.14,740.14,0,0,0,526.93,517a5.34,5.34,0,0,1,4.24,6.26q0,16.32,0,32.65c0,4.24.13,8.48.19,12.71C531.59,579.39,531.43,590.14,528.17,600.59Z"/><path class="cls-7" d="M531.39,568.63a312,312,0,0,1-82.58-35.91c-7.1-4.44-14.42-9.13-21.53-14.13-.51-6.35-1.2-12.68-2.11-19-.74-5.08-1.58-10.17-2.53-15.23q-.94-5.1-2.05-10.17c-.51-2.36-3.35-8.72-.61-10.36,2.53-1.5,7.74,3,9.85,4.25A740.14,740.14,0,0,0,526.93,517a5.34,5.34,0,0,1,4.24,6.26q0,16.32,0,32.65C531.22,560.16,531.33,564.4,531.39,568.63Z"/><path class="cls-5" d="M579.73,482.45c-6.23,15.23-14.88,29.06-29,38a74.39,74.39,0,0,1-42.49,11.12c-16.38-.71-32.13-6.42-46.07-15.2a121.33,121.33,0,0,1-19.33-15.17,168.47,168.47,0,0,1-26.38-33.48c-12.1-19.75-21.86-42.25-26.7-65.49q-.84-4-1.49-8.07c-3.77-23.74-2.18-48,7.44-70.62a100.44,100.44,0,0,1,17.88-28.11c31.47-35,85.6-41.1,124.06-13.88,20,14.2,35,35.54,43,58.62a225.84,225.84,0,0,1,6.49,22.45c.3,1.32.61,2.66.88,4C596.2,405,594.56,446.22,579.73,482.45Z"/><path class="cls-8" d="M500.1,412c-2.06.11-4.91-3.17-5.69-8a12.81,12.81,0,0,1,.68-7.05c.3-.66,1.12-2.22,2.38-2.42l.2,0c2.06-.11,4.9,3.17,5.69,8a12.8,12.8,0,0,1-.69,7c-.29.66-1.11,2.22-2.38,2.42Z"/><path class="cls-8" d="M561.93,406c-1.74.09-4.66-2.83-5.46-7.78a12.47,12.47,0,0,1,.66-6.82c.6-1.34,1.42-2.18,2.26-2.32h.18c1.74-.09,4.66,2.82,5.46,7.77a12.41,12.41,0,0,1-.67,6.83c-.59,1.33-1.41,2.17-2.25,2.31l-.18,0Z"/><path class="cls-8" d="M530.9,417.26a7.65,7.65,0,0,1,6.93-2.06,9.11,9.11,0,0,1,6.55,12.54,7.62,7.62,0,0,1-5.67,4.5,10.45,10.45,0,0,0,3-5.42,8,8,0,0,0-.81-5.23,7.89,7.89,0,0,0-3.82-3.65A10.41,10.41,0,0,0,530.9,417.26Z"/><path class="cls-8" d="M500.1,376.3a1.37,1.37,0,0,1-.57-.05,18.28,18.28,0,0,0-7.31-.65c-.33,0-.67.08-1,.14a18.43,18.43,0,0,0-6.29,2.26,1.33,1.33,0,0,1-.49.18,1.63,1.63,0,0,1-.55,0,1.43,1.43,0,0,1-.42-2.64,21.31,21.31,0,0,1,7.26-2.61l1.16-.16a21.43,21.43,0,0,1,8.46.74,1.44,1.44,0,0,1,1,1.79,1.42,1.42,0,0,1-1.13,1Z"/><path class="cls-8" d="M548.83,367.66a1,1,0,0,1-.27-.1,1.4,1.4,0,0,1-.7-.72,1.45,1.45,0,0,1,.75-1.89,20,20,0,0,1,11.62-1.18l1,.24a18.51,18.51,0,0,1,2.78.93,1.48,1.48,0,0,1,.76,1.89,1.4,1.4,0,0,1-1.59.84,1.22,1.22,0,0,1-.3-.09,16.5,16.5,0,0,0-2.37-.8c-.29-.07-.58-.14-.87-.19a17,17,0,0,0-9.94,1,1.55,1.55,0,0,1-.85.09Z"/><path class="cls-9" d="M498.91,397.7c-3-.62-4,4.06-1,4.68S501.93,398.33,498.91,397.7Z"/><path class="cls-9" d="M561.71,391.65c-3-.63-4,4.06-1,4.68S564.73,392.27,561.71,391.65Z"/><path class="cls-10" d="M568.41,441a43.08,43.08,0,0,1-3.91,23.08c-5.2,10.86-14.91,18.6-26.66,19.79-12,1.22-23.35-4.72-30.6-14.73a43.27,43.27,0,0,1-8-21.13c0-.29,0-.58,0-.89l69.06-7C568.32,440.44,568.38,440.72,568.41,441Z"/><path class="cls-9" d="M565.48,440.42A44.54,44.54,0,0,1,502,446.84Z"/><path class="cls-11" d="M564.5,464.09c-5.2,10.86-14.91,18.6-26.66,19.79-12,1.22-23.35-4.72-30.6-14.73a125.77,125.77,0,0,1,57.26-5.06Z"/><path class="cls-7" d="M496.24,431c.41,7.86-7.9,14.69-18.57,15.26S458,440.94,457.6,433.08s7.89-14.69,18.56-15.25S495.82,423.17,496.24,431Z"/><path class="cls-7" d="M586.21,418.25c.28,5.31-5.33,9.92-12.54,10.3s-13.27-3.61-13.55-8.91,5.33-9.92,12.53-10.31S585.93,412.94,586.21,418.25Z"/><path class="cls-4" d="M589.25,366.21c-18.94-5.52-38.07-17.81-53.54-36-2-2.37-3.94-4.81-5.75-7.27-11.75,24.81-35.77,47.62-67.74,61.15C436.43,395,409.9,398,387,394.11c-3.81-24-2.2-48.6,7.54-71.52a101.39,101.39,0,0,1,18.11-28.46c31.86-35.5,86.68-41.63,125.63-14.06,20.31,14.38,35.45,36,43.53,59.36a229.8,229.8,0,0,1,6.58,22.74C588.67,363.51,589,364.86,589.25,366.21Z"/><path class="cls-5" d="M433.05,458.12a45.62,45.62,0,0,1-44.89,3.78,44.89,44.89,0,0,1-23.92-30.24,42.8,42.8,0,0,1-1-7.17A32.67,32.67,0,0,1,365,412c3.62-9.84,13.63-16.8,24.08-17.48s21,4.62,27.25,13L422.75,427Z"/><path class="cls-12" d="M531.08,570.35c-1.56,13.66-3.59,28.13-14.42,37.91-9.5,8.58-22.77,12.27-35.43,12.17a65.3,65.3,0,0,1-37.34-12.15c-12.18-8.77-15.87-23.5-16.27-37.79-.19-6.68-10.73-6.71-10.54,0C417.54,587,422,604.42,435.6,615a75.76,75.76,0,0,0,45.63,15.79c15.44.15,31.41-4.76,42.88-15.21,12.95-11.8,15.63-28.81,17.52-45.27C542.39,563.7,531.84,563.76,531.08,570.35Z"/><path class="cls-5" d="M298.46,1263.22a38,38,0,0,1,1.2,8.59c-.26,13.47-15.11,10-20.71,2a17.26,17.26,0,0,1-1.39-2.33c-.16-.29-.31-.6-.44-.9a29.79,29.79,0,0,1-1.66-4.7c-.87-3.24-1.35-6.62-2-9.85a37.67,37.67,0,0,0-2.61-8.89c-.27-.6-.55-1.25-.85-1.9a12.06,12.06,0,0,0-1.68-2.74,4.52,4.52,0,0,0-.76-.69,3.67,3.67,0,0,0-.88-.51,3.82,3.82,0,0,0-.51-.18,4.13,4.13,0,0,0-.53-.11,6.66,6.66,0,0,0-2.7.29,10.18,10.18,0,0,0-1,.36c-.51.22-1,.48-1.51.75l-.93.58a13.71,13.71,0,0,0-1.95,1.61,14.59,14.59,0,0,0-3.09,4.85,22.77,22.77,0,0,0-1,3.38,48.62,48.62,0,0,0-1,7c-.5,6.06-.63,12.07-1,18.11,0,.74-.07,1.48-.1,2.21a52.31,52.31,0,0,0,2.16,18.42s0,0,0,0c.38,1.16.8,2.31,1.29,3.47,3.38,7.93,8.43,15,13.05,22.23,4.2,6.64,10,15.14,9.94,23.49a15.55,15.55,0,0,1-.61,4.26,5.92,5.92,0,0,1-4.36,4.13,7.77,7.77,0,0,1-6.21-1,19.41,19.41,0,0,1-4.68-5.31c-8.55-12.54-17.33-24.93-24-38.58-6.32-12.89-14.33-45.68-17.05-59.67-4-20.72-19.86-133.91-24.33-180.36-9.11-95.1-2.07-158.58,7.55-210.31,2.78-14.95,9-42.52,15.13-69.13,26.74,6.5,69.51,15.76,89.18,20.51l-23.18,93.54s-9.22,123.22-13,166.61c-3.44,39.2-13,84.43-14,96.09,5.44,5.8,11.2,13.9,20.24,30.44a242.63,242.63,0,0,1,11.83,23.72C295.58,1235.56,295.59,1249.71,298.46,1263.22Z"/><path class="cls-13" d="M360.56,694.41c-.26,2.59-6.31,62.23-11.58,85.39a323.84,323.84,0,0,1-13,41.57c-6-22.46-10.22-38.35-10.23-38.67,0,0,15.94-31.87,24.63-56.5C358.57,703.1,360.37,695.3,360.56,694.41Z"/><path class="cls-13" d="M657.76,812.07c-11.78-13.59-21.53-26-21.91-26.46h0s1.45-47.81,0-67.82c-.94-13.08-11.26-56.84-11.58-58.2.74,1.34,24.43,44.21,30.41,72.41C660.58,759.87,659.6,791,657.76,812.07Z"/></g><path class="cls-6" d="M458.46,863.24a2.06,2.06,0,0,1,0-4.12c3.64,0,7.32,0,11-.16a2.06,2.06,0,1,1,.12,4.12C465.85,863.18,462.13,863.24,458.46,863.24Zm-11-.15h-.06c-3.69-.1-7.41-.26-11.06-.46a2.06,2.06,0,1,1,.23-4.11c3.62.2,7.3.35,10.94.45a2.06,2.06,0,0,1-.05,4.12Zm33-.48a2.06,2.06,0,0,1-.11-4.11c3.63-.21,7.3-.47,10.92-.78a2.06,2.06,0,1,1,.35,4.1c-3.65.31-7.37.58-11,.79Zm-55-.75h-.17c-3.66-.3-7.37-.67-11-1.08a2.06,2.06,0,0,1,.46-4.09c3.61.4,7.28.77,10.9,1.07a2.06,2.06,0,0,1-.17,4.11Zm77-1.12a2.06,2.06,0,0,1-.23-4.11c3.61-.41,7.26-.88,10.86-1.39a2.06,2.06,0,0,1,.59,4.08c-3.65.52-7.34,1-11,1.41Zm-98.83-1.35-.29,0c-3.64-.52-7.32-1.09-10.94-1.71a2.06,2.06,0,0,1,.69-4.06c3.59.61,7.23,1.18,10.83,1.69a2.06,2.06,0,0,1-.29,4.1Zm120.63-1.77a2.06,2.06,0,0,1-.35-4.08c3.58-.62,7.2-1.3,10.77-2a2.06,2.06,0,0,1,.82,4c-3.61.73-7.27,1.41-10.89,2A2,2,0,0,1,524.21,857.62Zm-142.34-2a2,2,0,0,1-.41,0c-3.59-.72-7.23-1.51-10.82-2.34a2.06,2.06,0,0,1,.93-4c3.55.82,7.15,1.6,10.71,2.31a2.06,2.06,0,0,1-.41,4.08Zm163.93-2.41a2.06,2.06,0,0,1-.47-4.06c3.55-.82,7.13-1.71,10.64-2.63a2.06,2.06,0,0,1,1,4c-3.55.93-7.16,1.83-10.75,2.66A1.8,1.8,0,0,1,545.8,853.26Zm-185.39-2.55a2.37,2.37,0,0,1-.52-.06c-3.57-.94-7.16-1.93-10.67-3a2.06,2.06,0,0,1,1.16-4c3.46,1,7,2,10.55,2.92a2.06,2.06,0,0,1-.52,4.05Zm206.69-3a2.06,2.06,0,0,1-.58-4c3.49-1,7-2.12,10.46-3.24a2.06,2.06,0,0,1,1.28,3.92c-3.5,1.13-7.06,2.23-10.58,3.27A2.32,2.32,0,0,1,567.1,847.67Zm-227.82-3.14a2,2,0,0,1-.64-.1c-3.51-1.14-7.05-2.34-10.52-3.58a2.06,2.06,0,0,1,1.39-3.88c3.43,1.23,6.93,2.42,10.4,3.54a2.06,2.06,0,0,1-.63,4ZM588,840.86a2.05,2.05,0,0,1-.69-4c3.43-1.23,6.88-2.52,10.26-3.84a2.06,2.06,0,0,1,1.5,3.84c-3.42,1.33-6.91,2.64-10.37,3.87A2.15,2.15,0,0,1,588,840.86Zm-269.58-3.74a2.15,2.15,0,0,1-.74-.14c-3.44-1.34-6.9-2.75-10.29-4.18A2.06,2.06,0,0,1,309,829c3.36,1.42,6.78,2.81,10.18,4.13a2.06,2.06,0,0,1-.75,4Zm290.07-4.24a2.06,2.06,0,0,1-.81-4c3.35-1.42,6.71-2.9,10-4.4a2.06,2.06,0,1,1,1.71,3.74c-3.32,1.52-6.72,3-10.1,4.45A2.09,2.09,0,0,1,608.53,832.88Zm-310.4-4.36a2,2,0,0,1-.86-.19c-3.35-1.53-6.72-3.13-10-4.75a2.06,2.06,0,0,1,1.81-3.7c3.27,1.61,6.61,3.19,9.92,4.71a2.06,2.06,0,0,1-.85,3.93Zm330.36-4.78a2.06,2.06,0,0,1-.91-3.91c3.24-1.6,6.52-3.27,9.73-5a2.06,2.06,0,1,1,1.93,3.64c-3.25,1.72-6.56,3.41-9.84,5A2.09,2.09,0,0,1,628.49,823.74Zm-350.17-5a2,2,0,0,1-1-.24c-3.24-1.71-6.51-3.5-9.73-5.32a2.06,2.06,0,0,1,2-3.58c3.18,1.8,6.42,3.57,9.63,5.26a2.06,2.06,0,0,1-1,3.88Zm369.6-5.3a2.06,2.06,0,0,1-1-3.85c3.17-1.79,6.34-3.65,9.44-5.52a2.06,2.06,0,1,1,2.13,3.52c-3.13,1.9-6.34,3.77-9.54,5.58A2.07,2.07,0,0,1,647.92,813.47Zm-388.8-5.56a2.05,2.05,0,0,1-1.06-.3c-3.15-1.9-6.31-3.87-9.4-5.86a2.06,2.06,0,1,1,2.23-3.47c3.06,2,6.19,3.93,9.3,5.81a2.06,2.06,0,0,1-1.07,3.82Zm407.61-5.81a2.06,2.06,0,0,1-1.11-3.79c3-1.95,6.11-4,9.11-6a2.06,2.06,0,1,1,2.32,3.4c-3,2.08-6.13,4.14-9.2,6.12A2.07,2.07,0,0,1,666.73,802.1ZM240.58,796a2,2,0,0,1-1.16-.36c-3-2.08-6.09-4.23-9-6.39a2.06,2.06,0,0,1,2.42-3.33c2.93,2.13,6,4.26,9,6.33a2.06,2.06,0,0,1-1.17,3.75Zm444.3-6.29a2.06,2.06,0,0,1-1.21-3.72c3-2.15,5.89-4.36,8.75-6.57a2.06,2.06,0,0,1,2.52,3.26c-2.89,2.23-5.87,4.46-8.85,6.64A2.1,2.1,0,0,1,684.88,789.68ZM222.76,783a2.07,2.07,0,0,1-1.26-.43c-2.9-2.24-5.82-4.56-8.66-6.89a2.06,2.06,0,0,1,2.6-3.19c2.82,2.31,5.7,4.6,8.58,6.83a2.05,2.05,0,0,1-1.26,3.68Zm479.54-6.76a2.06,2.06,0,0,1-1.31-3.65c2.82-2.31,5.64-4.69,8.37-7.05a2.06,2.06,0,1,1,2.7,3.11c-2.76,2.39-5.61,4.79-8.46,7.12A2,2,0,0,1,702.3,776.24Zm-496.59-7.19a2,2,0,0,1-1.35-.51c-2.78-2.41-5.56-4.89-8.26-7.37a2.06,2.06,0,1,1,2.79-3c2.67,2.45,5.42,4.9,8.17,7.29a2.06,2.06,0,0,1-1.35,3.62Zm513.22-7.23a2.05,2.05,0,0,1-1.39-3.57c2.68-2.46,5.36-5,8-7.52a2.06,2.06,0,0,1,2.87,3c-2.63,2.55-5.33,5.1-8,7.59A2,2,0,0,1,718.93,761.82Zm-529.44-7.67a2,2,0,0,1-1.43-.58c-2.65-2.58-5.29-5.21-7.83-7.83a2.06,2.06,0,0,1,3-2.87c2.52,2.59,5.12,5.2,7.75,7.74a2.06,2.06,0,0,1-1.44,3.54Zm545.24-7.67a2.05,2.05,0,0,1-1.48-3.49c2.53-2.6,5.07-5.28,7.53-8a2.06,2.06,0,0,1,3,2.79c-2.49,2.7-5,5.41-7.61,8A2,2,0,0,1,734.73,746.48Zm-560.59-8.12a2,2,0,0,1-1.51-.67c-2.49-2.71-5-5.48-7.37-8.25a2.06,2.06,0,1,1,3.11-2.7c2.38,2.74,4.83,5.49,7.29,8.17a2.07,2.07,0,0,1-.12,2.91A2.09,2.09,0,0,1,174.14,738.36Zm575.49-8.09a2.06,2.06,0,0,1-1.55-3.41c2.39-2.76,4.77-5.58,7.06-8.38a2.06,2.06,0,0,1,3.19,2.61c-2.32,2.83-4.72,5.68-7.14,8.47A2.06,2.06,0,0,1,749.63,730.27Zm-589.91-8.54a2,2,0,0,1-1.59-.75c-2.34-2.86-4.66-5.77-6.89-8.66a2.06,2.06,0,0,1,3.26-2.52c2.2,2.86,4.5,5.74,6.81,8.57a2.05,2.05,0,0,1-1.59,3.36Zm603.87-8.51a2,2,0,0,1-1.62-3.31c2.21-2.86,4.42-5.81,6.58-8.77a2.05,2.05,0,1,1,3.32,2.42c-2.17,3-4.41,6-6.65,8.87A2,2,0,0,1,763.59,713.22Zm-617.32-8.9a2,2,0,0,1-1.66-.85c-2.16-3-4.3-6-6.38-9a2.06,2.06,0,1,1,3.39-2.33c2.06,3,4.19,6,6.32,8.94a2.06,2.06,0,0,1-1.67,3.27Zm630.3-8.91a2.08,2.08,0,0,1-1.16-.36,2,2,0,0,1-.53-2.86c2-3,4.09-6.07,6.07-9.14a2.06,2.06,0,0,1,3.46,2.23c-2,3.1-4.06,6.21-6.14,9.23A2,2,0,0,1,776.57,695.41Zm-642.73-9.23a2,2,0,0,1-1.73-.94c-2-3.08-4-6.24-5.85-9.38a2.06,2.06,0,1,1,3.52-2.13c1.88,3.11,3.83,6.23,5.79,9.28a2.06,2.06,0,0,1-1.73,3.17Zm654.68-9.31a2,2,0,0,1-1.76-3.12c1.88-3.11,3.74-6.29,5.54-9.47a2.06,2.06,0,0,1,3.58,2c-1.82,3.21-3.7,6.43-5.6,9.57A2.06,2.06,0,0,1,788.52,676.87Zm-666-9.5a2.08,2.08,0,0,1-1.8-1c-1.81-3.2-3.59-6.46-5.3-9.69a2.06,2.06,0,0,1,3.64-1.93c1.69,3.2,3.46,6.43,5.25,9.59a2.06,2.06,0,0,1-1.79,3.07Zm676.92-9.69a2.06,2.06,0,0,1-1.82-3c1.71-3.24,3.39-6.53,5-9.78a2.06,2.06,0,0,1,3.7,1.82c-1.62,3.28-3.32,6.61-5,9.88A2.05,2.05,0,0,1,799.39,657.68ZM112.19,648a2.06,2.06,0,0,1-1.85-1.15c-1.62-3.28-3.22-6.63-4.74-10a2.06,2.06,0,1,1,3.74-1.71c1.51,3.3,3.09,6.62,4.69,9.86a2.05,2.05,0,0,1-.93,2.76A2.16,2.16,0,0,1,112.19,648Zm697-10.07a2.18,2.18,0,0,1-.86-.18,2.06,2.06,0,0,1-1-2.73c1.52-3.33,3-6.72,4.42-10.05a2.06,2.06,0,1,1,3.79,1.6c-1.42,3.37-2.93,6.79-4.47,10.16A2.05,2.05,0,0,1,809.15,637.88ZM103,628a2,2,0,0,1-1.89-1.26c-1.43-3.36-2.83-6.8-4.16-10.22a2.05,2.05,0,1,1,3.83-1.49c1.32,3.38,2.71,6.78,4.12,10.11a2.07,2.07,0,0,1-1.09,2.7A2.13,2.13,0,0,1,103,628Zm714.71-10.44a1.91,1.91,0,0,1-.74-.14,2.07,2.07,0,0,1-1.18-2.67c1.33-3.41,2.63-6.88,3.84-10.29a2.08,2.08,0,0,1,2.64-1.25,2.05,2.05,0,0,1,1.24,2.63c-1.23,3.45-2.53,6.95-3.88,10.41A2.06,2.06,0,0,1,817.75,617.55ZM95,607.51a2,2,0,0,1-1.93-1.36c-1.25-3.48-2.45-7-3.58-10.48a2.06,2.06,0,1,1,3.91-1.28c1.12,3.44,2.31,6.93,3.54,10.37a2.06,2.06,0,0,1-1.24,2.63A2.15,2.15,0,0,1,95,607.51Zm730.14-10.77a2,2,0,0,1-.64-.1,2.06,2.06,0,0,1-1.32-2.59c1.12-3.45,2.21-7,3.23-10.47a2.06,2.06,0,1,1,3.95,1.16c-1,3.53-2.13,7.09-3.26,10.58A2.06,2.06,0,0,1,825.18,596.74Zm-737-10.17a2,2,0,0,1-2-1.48c-1-3.53-2-7.12-3-10.66a2.06,2.06,0,1,1,4-1c.92,3.51,1.91,7.06,2.94,10.55a2.06,2.06,0,0,1-1.4,2.56A2.25,2.25,0,0,1,88.22,586.57Zm743.15-11a1.86,1.86,0,0,1-.52-.07,2.05,2.05,0,0,1-1.47-2.51c.92-3.51,1.8-7.09,2.62-10.64a2.06,2.06,0,1,1,4,.93c-.83,3.59-1.72,7.2-2.65,10.75A2.06,2.06,0,0,1,831.37,575.61ZM82.62,565.27a2,2,0,0,1-2-1.59c-.84-3.58-1.63-7.22-2.35-10.82a2.06,2.06,0,0,1,4-.81c.72,3.55,1.5,7.15,2.33,10.7a2.05,2.05,0,0,1-1.54,2.47A1.88,1.88,0,0,1,82.62,565.27Zm753.72-11.12a2,2,0,0,1-.41,0,2.06,2.06,0,0,1-1.61-2.42c.72-3.6,1.4-7.22,2-10.77a2.06,2.06,0,1,1,4.06.7c-.62,3.58-1.3,7.24-2,10.88A2.06,2.06,0,0,1,836.34,554.15ZM78.25,543.69a2.07,2.07,0,0,1-2-1.71c-.63-3.64-1.21-7.32-1.72-10.93a2.06,2.06,0,1,1,4.07-.59c.51,3.58,1.09,7.22,1.71,10.82a2.06,2.06,0,0,1-2,2.41Zm761.82-11.24-.29,0A2.06,2.06,0,0,1,838,530.1c.51-3.62,1-7.28,1.39-10.87a2.06,2.06,0,1,1,4.09.47c-.41,3.63-.88,7.32-1.4,11A2.06,2.06,0,0,1,840.07,532.45ZM75.12,521.89a2.05,2.05,0,0,1-2-1.82c-.42-3.67-.79-7.38-1.1-11a2.06,2.06,0,1,1,4.1-.35c.31,3.6.68,7.27,1.09,10.9a2.06,2.06,0,0,1-1.81,2.28Zm767.43-11.32h-.17a2.05,2.05,0,0,1-1.88-2.22c.31-3.65.56-7.32.77-10.93a2.06,2.06,0,1,1,4.11.23c-.21,3.65-.47,7.36-.78,11A2.06,2.06,0,0,1,842.55,510.57ZM73.24,500a2.06,2.06,0,0,1-2-1.94c-.21-3.67-.37-7.4-.48-11.06a2.06,2.06,0,1,1,4.12-.12c.1,3.63.26,7.31.47,10.94A2.07,2.07,0,0,1,73.36,500Zm770.55-11.37h-.06a2.06,2.06,0,0,1-2-2.11c.1-3.66.15-7.34.15-11v-.72a2.06,2.06,0,1,1,4.12,0v.72c0,3.65,0,7.38-.16,11.07A2,2,0,0,1,843.79,488.58ZM72.61,477.94a2.06,2.06,0,0,1-2.06-2.06v-.37c0-3.56,0-7.16.14-10.7a2.06,2.06,0,0,1,4.12.11c-.1,3.5-.14,7.07-.14,10.59v.37A2.07,2.07,0,0,1,72.61,477.94Zm771.15-12.1a2.06,2.06,0,0,1-2-2c-.11-3.62-.27-7.3-.48-10.95a2.05,2.05,0,0,1,1.93-2.17,2.07,2.07,0,0,1,2.18,1.93c.21,3.69.38,7.41.48,11.07a2,2,0,0,1-2,2.11ZM73.21,455.92h-.12a2.06,2.06,0,0,1-1.94-2.17c.2-3.66.46-7.38.76-11a2.06,2.06,0,0,1,4.11.34c-.3,3.63-.56,7.3-.76,10.93A2.06,2.06,0,0,1,73.21,455.92Zm769.27-12.07a2.05,2.05,0,0,1-2-1.88c-.32-3.63-.69-7.3-1.1-10.9a2.06,2.06,0,0,1,4.09-.47c.42,3.64.79,7.34,1.11,11a2.06,2.06,0,0,1-1.87,2.23ZM75,434h-.23A2.06,2.06,0,0,1,73,431.69c.41-3.65.87-7.34,1.39-11a2.06,2.06,0,0,1,4.08.57c-.51,3.61-1,7.26-1.38,10.87A2.06,2.06,0,0,1,75,434ZM840,422a2,2,0,0,1-2-1.76c-.53-3.61-1.1-7.25-1.72-10.82a2.06,2.06,0,1,1,4-.7c.63,3.61,1.22,7.28,1.74,10.93a2.06,2.06,0,0,1-1.74,2.33A1.51,1.51,0,0,1,840,422Zm-761.83-9.8-.35,0a2.05,2.05,0,0,1-1.68-2.37c.61-3.6,1.29-7.26,2-10.89a2.06,2.06,0,0,1,4,.81c-.71,3.59-1.38,7.21-2,10.77A2.06,2.06,0,0,1,78.13,412.17Zm758.06-11.89a2.06,2.06,0,0,1-2-1.65c-.72-3.55-1.51-7.15-2.34-10.7a2.06,2.06,0,0,1,4-.94c.84,3.6,1.64,7.24,2.36,10.82a2.06,2.06,0,0,1-1.61,2.43A2.71,2.71,0,0,1,836.19,400.28Zm-753.73-9.7a2.59,2.59,0,0,1-.47-.05,2.07,2.07,0,0,1-1.54-2.47c.82-3.56,1.71-7.18,2.64-10.75a2.06,2.06,0,0,1,4,1c-.93,3.53-1.81,7.11-2.62,10.63A2,2,0,0,1,82.46,390.58Zm748.72-11.75a2,2,0,0,1-2-1.53c-.94-3.53-1.93-7.07-3-10.55a2.06,2.06,0,0,1,4-1.17c1,3.52,2,7.11,3,10.67a2.05,2.05,0,0,1-1.47,2.51A1.88,1.88,0,0,1,831.18,378.83ZM88,369.27a2,2,0,0,1-.58-.08,2.07,2.07,0,0,1-1.4-2.55c1-3.51,2.12-7.07,3.26-10.58a2.06,2.06,0,1,1,3.92,1.26c-1.13,3.48-2.21,7-3.22,10.47A2.07,2.07,0,0,1,88,369.27ZM825,357.71a2.06,2.06,0,0,1-2-1.42c-1.12-3.45-2.32-6.93-3.55-10.36a2.06,2.06,0,0,1,3.88-1.39c1.24,3.46,2.45,7,3.59,10.47a2.07,2.07,0,0,1-1.32,2.6A2,2,0,0,1,825,357.71ZM94.81,348.29a2.09,2.09,0,0,1-.69-.12,2.07,2.07,0,0,1-1.25-2.63c1.23-3.47,2.54-7,3.87-10.41a2.06,2.06,0,1,1,3.84,1.49c-1.32,3.4-2.61,6.87-3.83,10.3A2.06,2.06,0,0,1,94.81,348.29ZM817.51,337a2,2,0,0,1-1.91-1.31c-1.32-3.35-2.7-6.75-4.13-10.1a2.06,2.06,0,0,1,3.79-1.61c1.44,3.39,2.84,6.83,4.17,10.21a2.06,2.06,0,0,1-1.17,2.67A2,2,0,0,1,817.51,337Zm-714.7-9.28a2,2,0,0,1-.8-.16,2.07,2.07,0,0,1-1.1-2.7c1.44-3.4,2.94-6.82,4.47-10.16a2.06,2.06,0,1,1,3.74,1.71c-1.51,3.3-3,6.69-4.41,10.05A2.07,2.07,0,0,1,102.81,327.7Zm706.12-10.92a2,2,0,0,1-1.87-1.2c-1.51-3.27-3.09-6.59-4.7-9.86a2.06,2.06,0,1,1,3.69-1.82c1.63,3.3,3.23,6.65,4.75,10a2.06,2.06,0,0,1-1,2.73A2,2,0,0,1,808.93,316.78ZM112,307.62a2,2,0,0,1-.91-.22,2.05,2.05,0,0,1-.94-2.75c1.63-3.31,3.32-6.64,5-9.89a2.06,2.06,0,1,1,3.64,1.93c-1.7,3.21-3.37,6.5-5,9.78A2.05,2.05,0,0,1,112,307.62Zm687.21-10.53a2.08,2.08,0,0,1-1.82-1.09c-1.7-3.21-3.47-6.43-5.25-9.58a2.06,2.06,0,0,1,3.58-2c1.8,3.19,3.59,6.45,5.31,9.69a2.06,2.06,0,0,1-.85,2.78A2.11,2.11,0,0,1,799.19,297.09Zm-676.91-9a2,2,0,0,1-1-.26,2.06,2.06,0,0,1-.78-2.81c1.81-3.2,3.69-6.42,5.59-9.57a2.05,2.05,0,1,1,3.52,2.12c-1.88,3.12-3.74,6.31-5.53,9.48A2.06,2.06,0,0,1,122.28,288.1ZM788.35,278a2.09,2.09,0,0,1-1.77-1c-1.88-3.11-3.83-6.23-5.8-9.27a2.06,2.06,0,0,1,3.46-2.24c2,3.08,4,6.23,5.86,9.37a2.06,2.06,0,0,1-1.75,3.13Zm-654.68-8.76a2.06,2.06,0,0,1-1.73-3.17c2-3.1,4.06-6.21,6.13-9.24a2.06,2.06,0,0,1,3.4,2.33c-2.05,3-4.09,6.07-6.06,9.14A2.07,2.07,0,0,1,133.67,269.22Zm642.75-9.71a2.06,2.06,0,0,1-1.7-.9c-2.05-3-4.17-6-6.32-8.93a2.06,2.06,0,0,1,3.33-2.42c2.17,3,4.32,6,6.38,9a2.06,2.06,0,0,1-1.69,3.23ZM146.12,251a2.06,2.06,0,0,1-1.66-3.27c2.16-3,4.4-6,6.64-8.87a2.06,2.06,0,0,1,3.26,2.51c-2.22,2.88-4.43,5.83-6.57,8.78A2.07,2.07,0,0,1,146.12,251Zm617.33-9.29a2.08,2.08,0,0,1-1.63-.8c-2.2-2.86-4.5-5.74-6.82-8.56a2.06,2.06,0,1,1,3.19-2.61c2.34,2.85,4.66,5.76,6.89,8.65a2,2,0,0,1-.37,2.88A2,2,0,0,1,763.45,241.74Zm-603.87-8.16a2,2,0,0,1-1.3-.47,2.05,2.05,0,0,1-.29-2.89c2.32-2.84,4.72-5.69,7.13-8.48a2.06,2.06,0,1,1,3.12,2.7c-2.39,2.76-4.77,5.58-7.06,8.38A2.06,2.06,0,0,1,159.58,233.58Zm589.92-8.86a2.06,2.06,0,0,1-1.56-.71c-2.38-2.74-4.83-5.48-7.3-8.16a2.06,2.06,0,0,1,3-2.79c2.48,2.71,5,5.48,7.37,8.25a2.06,2.06,0,0,1-.2,2.91A2,2,0,0,1,749.5,224.72ZM174,216.93a2.06,2.06,0,0,1-1.52-3.45c2.48-2.71,5-5.42,7.6-8.06a2.06,2.06,0,0,1,2.95,2.87c-2.53,2.61-5.06,5.3-7.51,8A2.07,2.07,0,0,1,174,216.93Zm560.58-8.41a2.06,2.06,0,0,1-1.47-.62c-2.55-2.62-5.16-5.22-7.75-7.74a2.06,2.06,0,0,1,2.86-3c2.62,2.55,5.26,5.18,7.84,7.83a2.05,2.05,0,0,1-1.48,3.49Zm-545.24-7.39a2.06,2.06,0,0,1-1.43-3.54c2.61-2.54,5.31-5.1,8-7.6a2.06,2.06,0,1,1,2.78,3c-2.69,2.48-5.37,5-8,7.52A2.06,2.06,0,0,1,189.35,201.13Zm529.43-7.94a2,2,0,0,1-1.39-.55c-2.66-2.44-5.42-4.89-8.18-7.28a2.06,2.06,0,1,1,2.7-3.12c2.79,2.42,5.57,4.9,8.27,7.37a2.06,2.06,0,0,1-1.4,3.58Zm-513.22-7a2.06,2.06,0,0,1-1.35-3.61c2.78-2.41,5.62-4.81,8.46-7.14a2.06,2.06,0,0,1,2.61,3.19c-2.81,2.3-5.62,4.67-8.37,7.06A2.09,2.09,0,0,1,205.56,186.23Zm496.57-7.46a2,2,0,0,1-1.3-.47c-2.81-2.29-5.7-4.58-8.59-6.81a2.06,2.06,0,0,1,2.51-3.26c2.92,2.25,5.84,4.56,8.68,6.88a2.06,2.06,0,0,1,.29,2.9A2,2,0,0,1,702.13,178.77Zm-479.55-6.49a2.06,2.06,0,0,1-1.26-3.69c2.89-2.23,5.87-4.47,8.84-6.64a2.06,2.06,0,1,1,2.43,3.33c-2.94,2.15-5.89,4.36-8.75,6.57A2.07,2.07,0,0,1,222.58,172.28Zm462.09-7a2,2,0,0,1-1.21-.39c-2.94-2.13-6-4.26-9-6.32a2.05,2.05,0,1,1,2.32-3.39c3,2.07,6.09,4.22,9.06,6.38a2.05,2.05,0,0,1-1.21,3.72Zm-444.31-6a2.06,2.06,0,0,1-1.17-3.76c3-2.07,6.12-4.13,9.21-6.12a2.06,2.06,0,0,1,2.23,3.46c-3,2-6.12,4-9.11,6.05A2,2,0,0,1,240.36,159.33Zm426.11-6.46a2,2,0,0,1-1.11-.32c-3.06-2-6.19-3.92-9.31-5.8a2.06,2.06,0,0,1,2.12-3.53c3.16,1.9,6.32,3.87,9.41,5.86a2.06,2.06,0,0,1-1.11,3.79Zm-407.63-5.46a2.06,2.06,0,0,1-1.07-3.82c3.13-1.9,6.34-3.78,9.53-5.59a2.06,2.06,0,1,1,2,3.58c-3.16,1.79-6.33,3.65-9.43,5.53A2.05,2.05,0,0,1,258.84,147.41Zm388.74-5.92a2.07,2.07,0,0,1-1-.27c-3.15-1.78-6.39-3.55-9.63-5.26a2.06,2.06,0,1,1,1.92-3.64c3.27,1.73,6.55,3.51,9.73,5.31a2.06,2.06,0,0,1-1,3.86ZM278,136.57a2.06,2.06,0,0,1-1-3.88c3.23-1.71,6.54-3.41,9.83-5a2.06,2.06,0,1,1,1.82,3.69c-3.25,1.61-6.52,3.28-9.73,5A2,2,0,0,1,278,136.57Zm350.11-5.38a2,2,0,0,1-.9-.21c-3.26-1.6-6.6-3.18-9.92-4.69a2.06,2.06,0,1,1,1.71-3.75c3.36,1.53,6.73,3.13,10,4.75a2.06,2.06,0,0,1-.91,3.9Zm-330.41-4.35a2.06,2.06,0,0,1-.86-3.93c3.32-1.52,6.72-3,10.1-4.46a2.06,2.06,0,0,1,1.6,3.79c-3.33,1.42-6.7,2.91-10,4.42A2.13,2.13,0,0,1,297.65,126.84ZM608,122a2,2,0,0,1-.8-.16c-3.35-1.42-6.78-2.81-10.18-4.13a2.05,2.05,0,1,1,1.49-3.83c3.44,1.33,6.9,2.73,10.29,4.16a2.06,2.06,0,0,1-.8,4Zm-290.13-3.77a2.06,2.06,0,0,1-.75-4c3.43-1.34,6.91-2.65,10.37-3.88a2.06,2.06,0,0,1,1.39,3.87c-3.42,1.23-6.87,2.52-10.26,3.84A2,2,0,0,1,317.85,118.27Zm269.54-4.22a2.09,2.09,0,0,1-.69-.12c-3.43-1.22-6.93-2.41-10.41-3.53a2.06,2.06,0,0,1,1.27-3.92c3.51,1.14,7.05,2.34,10.52,3.57a2.06,2.06,0,0,1-.69,4Zm-248.81-3.21a2.06,2.06,0,0,1-.63-4c3.49-1.14,7.05-2.24,10.57-3.28a2.06,2.06,0,1,1,1.16,3.95c-3.48,1-7,2.12-10.46,3.25A2.31,2.31,0,0,1,338.58,110.84Zm227.82-3.57a2,2,0,0,1-.58-.09c-3.47-1-7-2-10.56-2.91a2.06,2.06,0,0,1,1-4c3.57.93,7.16,1.92,10.67,2.94a2.06,2.06,0,0,1-.57,4Zm-206.69-2.66a2.06,2.06,0,0,1-.53-4c3.56-.93,7.17-1.83,10.75-2.66a2.06,2.06,0,1,1,.93,4c-3.54.82-7.11,1.71-10.63,2.64A2.31,2.31,0,0,1,359.71,104.61Zm185.38-2.9a1.8,1.8,0,0,1-.46,0c-3.55-.82-7.16-1.59-10.71-2.3a2.06,2.06,0,1,1,.81-4c3.59.72,7.23,1.5,10.82,2.33a2.06,2.06,0,0,1-.46,4.06ZM381.15,99.62a2.06,2.06,0,0,1-.4-4.08c3.6-.73,7.26-1.42,10.88-2.05a2.06,2.06,0,0,1,.7,4.06c-3.58.62-7.2,1.3-10.77,2A1.84,1.84,0,0,1,381.15,99.62ZM523.49,97.4a2,2,0,0,1-.34,0c-3.59-.61-7.23-1.18-10.83-1.69a2.06,2.06,0,0,1,.58-4.08c3.63.52,7.31,1.09,10.94,1.71a2.06,2.06,0,0,1-.35,4.09ZM402.85,95.86a2.06,2.06,0,0,1-.29-4.1c3.63-.52,7.33-1,11-1.42a2.06,2.06,0,1,1,.47,4.09c-3.61.41-7.27.89-10.86,1.4A1.53,1.53,0,0,1,402.85,95.86Zm98.84-1.54h-.23c-3.62-.41-7.28-.77-10.9-1.07a2.06,2.06,0,1,1,.34-4.1c3.66.3,7.36.67,11,1.07a2.06,2.06,0,0,1-.22,4.11Zm-77-1a2.06,2.06,0,0,1-.18-4.11c3.65-.31,7.37-.58,11-.79a2.06,2.06,0,1,1,.24,4.11c-3.64.21-7.32.47-10.92.79Zm55-.85h-.11c-3.62-.2-7.3-.35-10.94-.45a2.06,2.06,0,1,1,.11-4.11c3.68.09,7.4.25,11.05.45a2.06,2.06,0,0,1-.11,4.11Zm-33-.42a2.06,2.06,0,0,1-.06-4.11c3.67-.11,7.4-.17,11.06-.17h0a2.06,2.06,0,1,1,0,4.11c-3.63,0-7.32.07-11,.17Z"/></svg>